<?xml version="1.0" standalone="no"?>
<!DOCTYPE svg PUBLIC "-//W3C//DTD SVG 20010904//EN"
 "http://www.w3.org/TR/2001/REC-SVG-20010904/DTD/svg10.dtd">
<svg version="1.0" xmlns="http://www.w3.org/2000/svg"
 width="1024.000000pt" height="1024.000000pt" viewBox="0 0 1024.000000 1024.000000"
 preserveAspectRatio="xMidYMid meet">
<metadata>
Created by potrace 1.14, written by Peter Selinger 2001-2017
</metadata>
<g transform="translate(0.000000,1024.000000) scale(0.100000,-0.100000)"
fill="#000000" stroke="none">
<path d="M1570 5160 c0 -414 -1 -443 -19 -480 l-19 -40 456 0 c320 0 465 3
488 12 17 6 40 25 50 42 17 29 18 62 19 469 l0 437 -487 0 -488 0 0 -440z
m835 270 c3 -11 3 -24 0 -30 -7 -11 -252 -14 -279 -4 -16 6 -22 35 -9 47 3 4
68 7 144 7 129 0 138 -1 144 -20z m-431 -107 c-1 -54 -2 -101 -3 -105 0 -5
-53 -8 -116 -8 -63 0 -116 3 -116 8 -1 4 -2 51 -3 105 l-1 97 120 0 120 0 -1
-97z m425 -92 c8 -5 11 -16 6 -30 -6 -20 -12 -21 -138 -21 -73 0 -138 4 -146
9 -8 5 -11 16 -6 30 6 20 12 21 138 21 73 0 138 -4 146 -9z m-1 -194 c17 -12
15 -35 -5 -45 -14 -6 -584 -9 -665 -3 -21 1 -28 33 -10 46 15 12 660 14 680 2z
m7 -207 c3 -11 3 -24 0 -30 -4 -6 -128 -10 -346 -10 -293 0 -340 2 -345 15 -4
8 -4 22 0 30 5 13 52 15 345 15 330 0 340 -1 346 -20z"/>
<path d="M1285 5064 l1 -356 37 -34 c40 -37 69 -42 120 -20 67 28 67 27 67
416 l0 350 -113 0 -112 0 0 -356z"/>
<path d="M3853 5372 c-46 -2 -84 -6 -84 -10 -2 -11 -7 -60 -14 -142 -4 -41 -8
-91 -10 -110 -2 -19 -7 -73 -10 -120 -4 -47 -9 -93 -11 -102 -3 -19 1 -19 281
-19 36 0 69 0 73 0 4 1 9 20 11 43 1 23 4 45 6 49 8 12 -18 16 -118 15 l-97
-1 0 35 c0 19 4 40 8 46 4 6 35 10 71 9 36 0 65 4 67 10 2 5 5 30 6 54 l3 45
-65 2 c-36 1 -67 2 -70 3 -8 2 1 81 9 82 3 1 51 2 106 3 l100 1 7 50 c4 27 6
51 4 52 -5 5 -185 8 -273 5z"/>
<path d="M4334 5372 l-42 -3 9 -37 c4 -20 10 -50 13 -67 13 -71 26 -142 30
-161 2 -12 7 -37 10 -55 3 -19 7 -43 10 -54 12 -60 20 -111 18 -117 -1 -5 45
-8 102 -8 l105 0 17 55 c10 30 19 53 21 51 2 -2 6 -25 10 -52 3 -27 6 -50 7
-51 3 -3 65 -5 131 -4 l71 1 13 38 c7 20 44 123 81 227 96 266 95 240 13 238
-37 -1 -71 -2 -75 -2 -3 -1 -34 -86 -68 -191 -34 -104 -66 -190 -69 -190 -4 0
-8 15 -9 33 -2 17 -4 41 -6 52 -3 11 -7 45 -11 77 -5 40 -12 57 -24 60 -21 6
-100 2 -107 -5 -3 -3 -11 -27 -19 -53 -54 -193 -57 -198 -69 -113 -4 25 -9 57
-11 70 -6 33 -24 154 -31 211 -6 44 -8 46 -43 50 -20 1 -55 2 -77 0z"/>
<path d="M5306 5366 c-86 -32 -127 -81 -129 -154 -2 -68 21 -98 105 -139 74
-36 94 -66 62 -90 -22 -17 -69 -10 -132 17 -48 22 -47 23 -56 -58 -5 -50 -4
-53 20 -62 14 -6 56 -13 93 -16 151 -14 264 58 263 167 -1 64 -24 93 -107 135
-79 41 -95 59 -72 81 21 21 67 22 112 2 22 -10 45 -19 51 -19 6 0 11 23 13 52
1 28 4 55 6 59 20 31 -161 50 -229 25z"/>
<path d="M5929 5366 c-76 -20 -140 -74 -182 -151 -17 -31 -22 -57 -22 -115 0
-96 29 -151 106 -201 47 -30 59 -33 128 -33 115 0 193 43 253 139 87 140 26
315 -126 360 -59 18 -95 18 -157 1z m129 -121 c65 -55 58 -180 -14 -242 -47
-41 -90 -44 -132 -8 -67 56 -58 184 16 245 46 38 89 39 130 5z"/>
<path d="M6521 5370 c-45 -4 -55 -8 -56 -25 -2 -11 -6 -63 -9 -115 -4 -52 -9
-108 -11 -125 -2 -16 -7 -68 -10 -115 -4 -47 -9 -93 -11 -102 -4 -13 1 -18 18
-19 29 -1 123 2 124 4 1 1 5 38 9 82 4 44 9 83 12 87 2 5 35 8 72 8 109 0 175
31 207 97 37 77 9 175 -59 208 -34 16 -188 24 -286 15z m204 -120 c20 -17 19
-53 -3 -73 -10 -9 -36 -17 -58 -18 -72 -3 -71 -4 -66 48 2 27 8 50 12 53 16
10 100 3 115 -10z"/>
<path d="M7130 5370 c-39 -4 -45 -8 -47 -30 -1 -27 -12 -149 -18 -220 -2 -25
-7 -79 -10 -120 -3 -41 -8 -87 -11 -102 l-4 -28 70 -1 c38 0 99 0 135 0 36 0
87 0 113 0 l49 1 2 53 1 53 -102 0 -103 0 0 44 0 45 70 0 70 1 6 49 c3 28 5
52 4 55 -2 3 -32 5 -67 5 -34 -1 -65 3 -68 7 -3 4 -4 24 -2 45 l4 38 109 0
c103 -1 109 0 110 20 0 11 2 35 3 53 2 19 -1 32 -8 32 -94 4 -271 4 -306 0z"/>
<path d="M7677 5370 c-21 -3 -37 -9 -36 -15 1 -10 -9 -142 -16 -215 -2 -19 -6
-66 -9 -105 -4 -38 -8 -91 -11 -117 l-5 -48 32 -1 c176 -4 241 1 293 25 53 24
105 79 127 136 17 44 21 148 8 195 -14 52 -67 117 -107 133 -30 12 -214 20
-276 12z m209 -131 c39 -37 46 -75 29 -165 -7 -37 -61 -92 -95 -95 -56 -5 -69
0 -64 24 2 12 6 51 9 87 2 36 7 90 11 121 l6 56 41 -3 c24 -2 50 -12 63 -25z"/>
<path d="M8330 5370 c-39 -4 -44 -8 -46 -30 -1 -21 -5 -71 -19 -225 -1 -11 -5
-60 -9 -109 -5 -50 -9 -98 -11 -108 -2 -10 1 -21 7 -24 10 -6 130 -6 134 -1 2
2 9 76 20 202 3 39 7 86 9 105 2 19 7 69 10 111 l6 77 -28 3 c-15 2 -48 2 -73
-1z"/>
<path d="M8800 5372 l-35 -3 -53 -137 c-29 -75 -73 -186 -97 -247 -24 -60 -42
-111 -41 -113 3 -3 94 -5 131 -3 15 1 25 13 35 44 l15 42 77 1 77 0 7 -42 c6
-39 9 -43 38 -46 17 -2 52 -1 77 0 l47 4 -9 31 c-4 18 -10 43 -13 57 -11 63
-87 404 -90 407 -5 5 -125 8 -166 5z m66 -178 c3 -21 9 -57 14 -79 5 -22 7
-42 4 -44 -3 -3 -25 -6 -48 -6 l-44 -1 31 87 c17 49 32 87 34 85 1 -1 5 -20 9
-42z"/>
<path d="M3089 5353 c-1 -10 -3 -27 -4 -38 -2 -11 -6 -58 -9 -105 -4 -47 -9
-96 -11 -110 -2 -14 -7 -68 -10 -120 -4 -52 -9 -98 -12 -102 -2 -5 11 -8 29
-9 40 -1 112 2 115 5 1 1 5 33 9 72 3 38 7 78 9 89 1 11 3 36 4 55 1 32 6 26
77 -90 42 -69 78 -127 79 -128 5 -5 137 -4 142 1 4 5 8 43 18 157 3 41 8 95
10 120 3 25 7 77 10 115 3 39 8 78 11 88 5 15 -3 17 -70 17 -65 0 -76 -2 -77
-17 0 -10 -2 -25 -3 -33 -2 -8 -7 -55 -11 -105 -4 -49 -8 -91 -9 -92 -1 -2
-35 54 -76 122 l-73 125 -74 0 c-62 0 -73 -3 -74 -17z"/>
</g>
</svg>
